<?xml version="1.0" encoding="utf-8"?>
<!-- Generator: Adobe Illustrator 24.1.2, SVG Export Plug-In . SVG Version: 6.00 Build 0)  -->
<svg version="1.1" id="Layer_1" xmlns="http://www.w3.org/2000/svg" xmlns:xlink="http://www.w3.org/1999/xlink" x="0px" y="0px"
	 viewBox="0 0 477.04 163.18" style="enable-background:new 0 0 477.04 163.18;" xml:space="preserve">
<style type="text/css">
	.st0{fill:#8E8E8F;}
</style>
<path class="st0" d="M107.05,107.87l-3.37,28.81H30.71v-0.98c9.27-4.08,10.68-5.34,10.68-16.59V53.77
	c0-11.24-1.41-12.51-10.68-16.59V36.2h68.05l2.53,28.67h-0.98c-3.65-11.1-12.93-24.31-29.23-24.31H59.7v40.33h11.52
	c9.13,0,15.46-5.91,18.55-10.96h0.7v27.4h-0.7c-3.51-6.6-10.12-12.37-18.55-12.22L59.7,85.38v40.19c0,3.94,5.62,6.6,14.47,6.6h4.36
	c12.51,0,22.34-12.93,27.54-24.31H107.05z"/>
<path class="st0" d="M109.66,135.69c6.74-3.51,8.29-4.92,8.29-15.46V56.72c0-13.77-2.11-14.62-8.29-18.69v-0.99
	c9.98-0.7,14.37-2.39,24.21-5.34v88.53c0,10.54,3.41,11.95,10.15,15.46v0.98h-34.36V135.69z"/>
<path class="st0" d="M144.12,135.69c6.74-3.51,10.15-4.92,10.15-15.46V55.9c0-13.77-2.11-14.61-8.29-18.69v-0.98
	c9.98-0.7,14.37-2.39,24.21-5.34v89.34c0,10.54,1.55,11.95,8.29,15.46v0.98h-34.36V135.69z"/>
<path class="st0" d="M326.32,96.51c0-20.51-12.89-58.45-34.67-58.45c-13.35,0-27.92,14.05-27.92,36.39
	c0,20.8,13.31,58.74,34.81,58.74C311.32,133.19,326.32,119.84,326.32,96.51 M244.15,85.55c0-32.32,20.24-51.99,50.87-51.99
	c30.63,0,51.01,19.67,51.01,51.99c0,32.32-20.38,52.13-51.01,52.13C264.39,137.68,244.15,117.87,244.15,85.55"/>
<path class="st0" d="M346.7,134.87c6.74-3.51,8.29-4.92,8.29-15.46V55.9c0-13.77-2.11-14.62-8.29-18.69v-0.99
	c9.98-0.7,14.37-2.39,24.21-5.34v88.53c0,10.54,1.55,11.95,8.29,15.46v0.98h-32.5V134.87z"/>
<path class="st0" d="M221.94,103.46c-4.2-15.62-14.38-19.9-18.31-21.34c1.63-6.83,5.3-11.1,11.94-11.1c4.2,0,6.37,1.42,6.37,8.12
	V103.46z M209.91,127.09c-9.02,0-16.77-10.5-16.77-20.81c0-7.44,4.04-13.73,11.18-13.73c9.83,0,15.1,11.38,15.05,20.77
	C219.34,119.55,217.59,127.09,209.91,127.09 M236.47,127.26V86.1c-0.05-13.28-7.75-18.57-20.37-18.57
	c-12.65,0-25.72,6.67-31.05,16.06h10.54c10.68,0,17.28,7.49,19.81,11.03c-2.81-2.59-5.62-5.17-14.47-5.17
	c-11.25,0-23.15,10.07-23.15,23.68c0,13.2,8.4,23.54,21.61,23.54c9.56,0,18.55-5.04,22.9-17.01v16.61h0.06v0.11h20.97v-0.84
	C238.83,133.19,237.04,131.93,236.47,127.26"/>
<path class="st0" d="M424.31,103.46c-4.2-15.62-14.38-19.9-18.31-21.34c1.63-6.83,5.3-11.1,11.94-11.1c4.2,0,6.37,1.42,6.37,8.12
	V103.46z M412.28,127.09c-9.02,0-16.77-10.5-16.77-20.81c0-7.44,4.04-13.73,11.18-13.73c9.83,0,15.1,11.38,15.05,20.77
	C421.71,119.55,419.96,127.09,412.28,127.09 M438.84,127.26V86.1c-0.05-13.28-7.75-18.57-20.37-18.57
	c-12.65,0-25.72,6.67-31.06,16.06h10.54c10.68,0,17.28,7.49,19.81,11.03c-2.81-2.59-5.62-5.17-14.47-5.17
	c-13.63,0-23.15,10.07-23.15,23.68c0,13.2,8.4,23.54,21.61,23.54c9.56,0,18.55-5.04,22.9-17.01v16.61h0.06v0.11h20.97v-0.84
	C441.2,133.19,439.41,131.93,438.84,127.26"/>
<path class="st0" d="M107.05,107.87l-3.37,28.81H30.71v-0.98c9.27-4.08,10.68-5.34,10.68-16.59V53.77
	c0-11.24-1.41-12.51-10.68-16.59V36.2h68.05l2.53,28.67h-0.98c-3.65-11.1-12.93-24.31-29.23-24.31H59.7v40.33h11.52
	c9.13,0,15.46-5.91,18.55-10.96h0.7v27.4h-0.7c-3.51-6.6-10.12-12.37-18.55-12.22L59.7,85.38v40.19c0,3.94,5.62,6.6,14.47,6.6h4.36
	c12.51,0,22.34-12.93,27.54-24.31H107.05z"/>
<path class="st0" d="M109.66,135.69c6.74-3.51,8.29-4.92,8.29-15.46V56.72c0-13.77-2.11-14.62-8.29-18.69v-0.99
	c9.98-0.7,14.37-2.39,24.21-5.34v88.53c0,10.54,3.41,11.95,10.15,15.46v0.98h-34.36V135.69z"/>
<path class="st0" d="M144.12,135.69c6.74-3.51,10.15-4.92,10.15-15.46V55.9c0-13.77-2.11-14.61-8.29-18.69v-0.98
	c9.98-0.7,14.37-2.39,24.21-5.34v89.34c0,10.54,1.55,11.95,8.29,15.46v0.98h-34.36V135.69z"/>
<path class="st0" d="M326.32,96.51c0-20.51-12.89-58.45-34.67-58.45c-13.35,0-27.92,14.05-27.92,36.39
	c0,20.8,13.31,58.74,34.81,58.74C311.32,133.19,326.32,119.84,326.32,96.51 M244.15,85.55c0-32.32,20.24-51.99,50.87-51.99
	c30.63,0,51.01,19.67,51.01,51.99c0,32.32-20.38,52.13-51.01,52.13C264.39,137.68,244.15,117.87,244.15,85.55"/>
<path class="st0" d="M346.7,134.87c6.74-3.51,8.29-4.92,8.29-15.46V55.9c0-13.77-2.11-14.62-8.29-18.69v-0.99
	c9.98-0.7,14.37-2.39,24.21-5.34v88.53c0,10.54,1.55,11.95,8.29,15.46v0.98h-32.5V134.87z"/>
<path class="st0" d="M221.94,103.46c-4.2-15.62-14.38-19.9-18.31-21.34c1.63-6.83,5.3-11.1,11.94-11.1c4.2,0,6.37,1.42,6.37,8.12
	V103.46z M209.91,127.09c-9.02,0-16.77-10.5-16.77-20.81c0-7.44,4.04-13.73,11.18-13.73c9.83,0,15.1,11.38,15.05,20.77
	C219.34,119.55,217.59,127.09,209.91,127.09 M236.47,127.26V86.1c-0.05-13.28-7.75-18.57-20.37-18.57
	c-12.65,0-25.72,6.67-31.05,16.06h10.54c10.68,0,17.28,7.49,19.81,11.03c-2.81-2.59-5.62-5.17-14.47-5.17
	c-11.25,0-23.15,10.07-23.15,23.68c0,13.2,8.4,23.54,21.61,23.54c9.56,0,18.55-5.04,22.9-17.01v16.61h0.06v0.11h20.97v-0.84
	C238.83,133.19,237.04,131.93,236.47,127.26"/>
<path class="st0" d="M424.31,103.46c-4.2-15.62-14.38-19.9-18.31-21.34c1.63-6.83,5.3-11.1,11.94-11.1c4.2,0,6.37,1.42,6.37,8.12
	V103.46z M412.28,127.09c-9.02,0-16.77-10.5-16.77-20.81c0-7.44,4.04-13.73,11.18-13.73c9.83,0,15.1,11.38,15.05,20.77
	C421.71,119.55,419.96,127.09,412.28,127.09 M438.84,127.26V86.1c-0.05-13.28-7.75-18.57-20.37-18.57
	c-12.65,0-25.72,6.67-31.06,16.06h10.54c10.68,0,17.28,7.49,19.81,11.03c-2.81-2.59-5.62-5.17-14.47-5.17
	c-13.63,0-23.15,10.07-23.15,23.68c0,13.2,8.4,23.54,21.61,23.54c9.56,0,18.55-5.04,22.9-17.01v16.61h0.06v0.11h20.97v-0.84
	C441.2,133.19,439.41,131.93,438.84,127.26"/>
<path class="st0" d="M107.05,107.87l-3.37,28.81H30.71v-0.98c9.27-4.08,10.68-5.34,10.68-16.59V53.77
	c0-11.24-1.41-12.51-10.68-16.59V36.2h68.05l2.53,28.67h-0.98c-3.65-11.1-12.93-24.31-29.23-24.31H59.7v40.33h11.52
	c9.13,0,15.46-5.91,18.55-10.96h0.7v27.4h-0.7c-3.51-6.6-10.12-12.37-18.55-12.22L59.7,85.38v40.19c0,3.94,5.62,6.6,14.47,6.6h4.36
	c12.51,0,22.34-12.93,27.54-24.31H107.05z"/>
<path class="st0" d="M109.66,135.69c6.74-3.51,8.29-4.92,8.29-15.46V56.72c0-13.77-2.11-14.62-8.29-18.69v-0.99
	c9.98-0.7,14.37-2.39,24.21-5.34v88.53c0,10.54,3.41,11.95,10.15,15.46v0.98h-34.36V135.69z"/>
<path class="st0" d="M144.12,135.69c6.74-3.51,10.15-4.92,10.15-15.46V55.9c0-13.77-2.11-14.61-8.29-18.69v-0.98
	c9.98-0.7,14.37-2.39,24.21-5.34v89.34c0,10.54,1.55,11.95,8.29,15.46v0.98h-34.36V135.69z"/>
<path class="st0" d="M326.32,96.51c0-20.51-12.89-58.45-34.67-58.45c-13.35,0-27.92,14.05-27.92,36.39
	c0,20.8,13.31,58.74,34.81,58.74C311.32,133.19,326.32,119.84,326.32,96.51 M244.15,85.55c0-32.32,20.24-51.99,50.87-51.99
	c30.63,0,51.01,19.67,51.01,51.99c0,32.32-20.38,52.13-51.01,52.13C264.39,137.68,244.15,117.87,244.15,85.55"/>
<path class="st0" d="M346.7,134.87c6.74-3.51,8.29-4.92,8.29-15.46V55.9c0-13.77-2.11-14.62-8.29-18.69v-0.99
	c9.98-0.7,14.37-2.39,24.21-5.34v88.53c0,10.54,1.55,11.95,8.29,15.46v0.98h-32.5V134.87z"/>
<path class="st0" d="M221.94,103.46c-4.2-15.62-14.38-19.9-18.31-21.34c1.63-6.83,5.3-11.1,11.94-11.1c4.2,0,6.37,1.42,6.37,8.12
	V103.46z M209.91,127.09c-9.02,0-16.77-10.5-16.77-20.81c0-7.44,4.04-13.73,11.18-13.73c9.83,0,15.1,11.38,15.05,20.77
	C219.34,119.55,217.59,127.09,209.91,127.09 M236.47,127.26V86.1c-0.05-13.28-7.75-18.57-20.37-18.57
	c-12.65,0-25.72,6.67-31.05,16.06h10.54c10.68,0,17.28,7.49,19.81,11.03c-2.81-2.59-5.62-5.17-14.47-5.17
	c-11.25,0-23.15,10.07-23.15,23.68c0,13.2,8.4,23.54,21.61,23.54c9.56,0,18.55-5.04,22.9-17.01v16.61h0.06v0.11h20.97v-0.84
	C238.83,133.19,237.04,131.93,236.47,127.26"/>
<path class="st0" d="M424.31,103.46c-4.2-15.62-14.38-19.9-18.31-21.34c1.63-6.83,5.3-11.1,11.94-11.1c4.2,0,6.37,1.42,6.37,8.12
	V103.46z M412.28,127.09c-9.02,0-16.77-10.5-16.77-20.81c0-7.44,4.04-13.73,11.18-13.73c9.83,0,15.1,11.38,15.05,20.77
	C421.71,119.55,419.96,127.09,412.28,127.09 M438.84,127.26V86.1c-0.05-13.28-7.75-18.57-20.37-18.57
	c-12.65,0-25.72,6.67-31.06,16.06h10.54c10.68,0,17.28,7.49,19.81,11.03c-2.81-2.59-5.62-5.17-14.47-5.17
	c-13.63,0-23.15,10.07-23.15,23.68c0,13.2,8.4,23.54,21.61,23.54c9.56,0,18.55-5.04,22.9-17.01v16.61h0.06v0.11h20.97v-0.84
	C441.2,133.19,439.41,131.93,438.84,127.26"/>
<g>
	<path class="st0" d="M444.07,71.14h-1.8v-0.97h4.77v0.97h-1.82v5.35h-1.15V71.14z"/>
	<path class="st0" d="M454,73.91c-0.04-0.82-0.08-1.8-0.07-2.65h-0.03c-0.21,0.77-0.47,1.62-0.75,2.42l-0.92,2.74h-0.89l-0.84-2.7
		c-0.24-0.81-0.47-1.67-0.64-2.46h-0.02c-0.03,0.82-0.07,1.83-0.11,2.69l-0.14,2.54h-1.08l0.42-6.32h1.52l0.82,2.54
		c0.22,0.74,0.42,1.49,0.58,2.19h0.03c0.17-0.68,0.38-1.46,0.63-2.2l0.87-2.53h1.5l0.36,6.32h-1.12L454,73.91z"/>
</g>
</svg>
