<svg width="80" height="80" viewBox="0 0 80 80" fill="none" xmlns="http://www.w3.org/2000/svg">
<g clip-path="url(#clip0_1_136)">
<path d="M39.5 40C39.5 37.7015 40.4219 35.4971 42.0628 33.8718C43.7038 32.2464 45.9294 31.3333 48.25 31.3333C50.5706 31.3333 52.7962 32.2464 54.4372 33.8718C56.0781 35.4971 57 37.7015 57 40C57 42.2986 56.0781 44.503 54.4372 46.1283C52.7962 47.7536 50.5706 48.6667 48.25 48.6667C45.9294 48.6667 43.7038 47.7536 42.0628 46.1283C40.4219 44.503 39.5 42.2986 39.5 40V40Z" fill="#1ABCFE"/>
<path d="M22 57.3333C22 55.0348 22.9219 52.8304 24.5628 51.2051C26.2038 49.5797 28.4294 48.6667 30.75 48.6667H39.5V57.3333C39.5 59.6319 38.5781 61.8363 36.9372 63.4616C35.2962 65.0869 33.0706 66 30.75 66C28.4294 66 26.2038 65.0869 24.5628 63.4616C22.9219 61.8363 22 59.6319 22 57.3333V57.3333Z" fill="#0ACF83"/>
<path d="M39.5 14V31.3333H48.25C50.5706 31.3333 52.7962 30.4202 54.4372 28.7949C56.0781 27.1696 57 24.9652 57 22.6667C57 20.3681 56.0781 18.1637 54.4372 16.5384C52.7962 14.9131 50.5706 14 48.25 14H39.5Z" fill="#FF7262"/>
<path d="M22 22.6667C22 24.9652 22.9219 27.1696 24.5628 28.7949C26.2038 30.4202 28.4294 31.3333 30.75 31.3333H39.5V14H30.75C28.4294 14 26.2038 14.9131 24.5628 16.5384C22.9219 18.1637 22 20.3681 22 22.6667V22.6667Z" fill="#F24E1E"/>
<path d="M22 40C22 42.2986 22.9219 44.503 24.5628 46.1283C26.2038 47.7536 28.4294 48.6667 30.75 48.6667H39.5V31.3333H30.75C28.4294 31.3333 26.2038 32.2464 24.5628 33.8718C22.9219 35.4971 22 37.7015 22 40V40Z" fill="#A259FF"/>
</g>
<defs>
<clipPath id="clip0_1_136">
<rect width="35" height="52" fill="white" transform="translate(22 14)"/>
</clipPath>
</defs>
</svg>
