<?xml version="1.0" encoding="UTF-8" standalone="no"?><!DOCTYPE svg PUBLIC "-//W3C//DTD SVG 1.1//EN" "http://www.w3.org/Graphics/SVG/1.1/DTD/svg11.dtd"><svg width="100%" height="100%" viewBox="0 0 1061 938" version="1.1" xmlns="http://www.w3.org/2000/svg" xmlns:xlink="http://www.w3.org/1999/xlink" xml:space="preserve" xmlns:serif="http://www.serif.com/" style="fill-rule:evenodd;clip-rule:evenodd;stroke-linejoin:round;stroke-miterlimit:2;"><g><g><g><g><path d="M80.026,390.619c-2.065,0 -2.581,-1.032 -1.548,-2.581l10.842,-13.94c1.032,-1.549 3.614,-2.582 5.679,-2.582l184.319,0c2.065,0 2.582,1.549 1.549,3.098l-8.777,13.424c-1.033,1.549 -3.614,3.097 -5.163,3.097l-186.901,-0.516Z" style="fill:#00acd7;fill-rule:nonzero;"/></g></g></g><g><g><g><path d="M2.065,438.119c-2.065,-0 -2.581,-1.033 -1.549,-2.582l10.843,-13.94c1.032,-1.549 3.614,-2.581 5.679,-2.581l235.433,-0c2.065,-0 3.097,1.549 2.581,3.097l-4.13,12.392c-0.517,2.065 -2.582,3.097 -4.647,3.097l-244.21,0.517Z" style="fill:#00acd7;fill-rule:nonzero;"/></g></g></g><g><g><g><path d="M127.01,485.618c-2.065,0 -2.582,-1.549 -1.549,-3.097l7.228,-12.908c1.033,-1.549 3.098,-3.098 5.163,-3.098l103.26,0c2.065,0 3.098,1.549 3.098,3.614l-1.033,12.392c0,2.065 -2.065,3.614 -3.614,3.614l-112.553,-0.517Z" style="fill:#00acd7;fill-rule:nonzero;"/></g></g></g><g><g id="CXHf1q_3_"><g><g><path d="M662.929,381.326c-32.527,8.261 -54.728,14.456 -86.738,22.717c-7.745,2.065 -8.261,2.581 -14.973,-5.163c-7.745,-8.777 -13.424,-14.456 -24.266,-19.619c-32.527,-16.006 -64.021,-11.359 -93.45,7.744c-35.109,22.717 -53.179,56.277 -52.663,98.097c0.516,41.304 28.913,75.38 69.7,81.059c35.109,4.647 64.538,-7.744 87.771,-34.076c4.647,-5.679 8.778,-11.875 13.941,-19.103l-99.646,0c-10.843,0 -13.424,-6.712 -9.81,-15.489c6.712,-16.005 19.103,-42.853 26.331,-56.276c1.549,-3.098 5.163,-8.261 12.908,-8.261l187.933,-0c-1.033,13.94 -1.033,27.88 -3.098,41.82c-5.679,37.174 -19.619,71.249 -42.336,101.195c-37.174,49.048 -85.706,79.51 -147.146,87.771c-50.597,6.712 -97.581,-3.098 -138.885,-34.076c-38.206,-28.913 -59.89,-67.119 -65.57,-114.619c-6.712,-56.276 9.81,-106.874 43.886,-151.275c36.657,-48.016 85.189,-78.478 144.564,-89.32c48.532,-8.777 94.999,-3.098 136.819,25.298c27.364,18.071 46.984,42.853 59.891,72.799c3.098,4.646 1.033,7.228 -5.163,8.777Z" style="fill:#00acd7;fill-rule:nonzero;"/></g><g><path d="M833.824,666.84c-46.983,-1.033 -89.836,-14.457 -125.977,-45.435c-30.462,-26.331 -49.565,-59.891 -55.76,-99.646c-9.294,-58.342 6.712,-109.972 41.82,-155.922c37.69,-49.565 83.124,-75.38 144.564,-86.222c52.663,-9.294 102.227,-4.131 147.145,26.331c40.788,27.88 66.087,65.57 72.799,115.135c8.777,69.7 -11.359,126.493 -59.375,175.026c-34.076,34.592 -75.896,56.276 -123.912,66.086c-13.94,2.581 -27.88,3.098 -41.304,4.647Zm122.88,-208.586c-0.517,-6.711 -0.517,-11.874 -1.549,-17.037c-9.294,-51.114 -56.277,-80.027 -105.325,-68.668c-48.016,10.842 -78.994,41.304 -90.353,89.836c-9.293,40.271 10.326,81.059 47.5,97.581c28.396,12.391 56.793,10.842 84.157,-3.098c40.787,-21.169 62.988,-54.212 65.57,-98.614Z" style="fill:#00acd7;fill-rule:nonzero;"/></g></g></g></g></g></svg>