<svg width="884" height="172" viewBox="0 0 884 172" fill="none" xmlns="http://www.w3.org/2000/svg">
<path d="M33.2089 113.114C33.2089 118.51 34.0823 123.232 36.0476 126.829C37.7944 130.652 40.4148 133.8 43.4718 136.048C46.5288 138.296 50.2409 140.095 54.6081 141.219C58.757 142.344 63.1242 142.793 67.7097 142.793C70.7668 142.793 74.0422 142.569 77.5359 142.119C81.0297 141.669 84.3051 140.545 87.3621 138.971C90.4191 137.622 92.8211 135.598 95.0047 132.9C96.9699 130.202 98.0617 126.829 98.0617 122.782C98.0617 118.51 96.5332 114.912 93.9129 112.214C91.2926 109.516 87.7988 107.267 83.4316 105.469C79.0644 103.67 74.0422 102.096 68.5832 100.747C62.9058 99.3978 57.4468 98.0487 51.7695 96.25C45.8738 94.9009 40.1964 93.1021 34.7374 90.8536C29.06 88.6051 24.2561 85.907 19.8889 82.3094C15.5217 78.9367 11.8096 74.6646 9.18931 69.4931C6.56899 64.3216 5.25883 58.0259 5.25883 50.6059C5.25883 42.5114 6.78735 35.3162 10.2811 29.2453C13.7749 23.1745 18.1421 18.003 23.8194 13.9557C29.2784 9.90844 35.6108 6.98541 42.5984 4.96178C49.5859 3.16301 56.5734 2.03878 63.5609 2.03878C71.6402 2.03878 79.5012 3.16301 86.9254 4.96178C94.3496 6.76057 101.119 9.90844 107.014 13.9557C112.692 18.2278 117.277 23.6241 120.771 30.1447C124.265 36.6653 126.012 44.535 126.012 53.7537H92.8211C92.3844 49.0319 91.5109 45.2095 89.7641 41.8368C88.0172 38.6889 85.8336 36.2156 83.2133 34.4168C80.3746 32.8429 77.0992 31.4938 73.6054 30.5944C70.1117 29.9199 66.1812 29.695 62.0324 29.4702C59.1937 29.4702 56.355 29.9199 53.7347 30.3696C50.896 31.0441 48.2757 32.1684 46.0921 33.5174C43.9085 35.0914 41.9433 36.8902 40.6331 39.1386C39.1046 41.3871 38.4495 44.3101 38.4495 47.6829C38.4495 50.8307 38.8862 53.5289 40.1964 55.3277C41.2882 57.3513 43.4718 59.1501 46.9655 60.724C50.4593 62.5228 55.0449 64.0967 61.1589 65.6707C67.273 67.4695 75.134 69.4931 84.9601 71.9664C87.7988 72.6409 91.7293 73.7652 96.9699 75.3391C102.211 76.9131 107.233 79.3864 112.473 82.7591C117.496 86.3567 121.863 90.8536 125.575 96.6997C129.287 102.546 131.252 109.741 131.252 118.735C131.252 126.155 129.724 132.9 127.104 139.196C124.265 145.492 120.116 151.113 114.657 155.61C109.198 160.107 102.429 163.704 94.3496 166.178C86.2703 168.876 76.8808 170 66.3996 170C57.6652 170 49.3675 169.101 41.2882 166.852C33.2089 164.604 26.003 161.231 19.8889 156.509C13.7749 152.012 8.75259 145.941 5.25883 138.746C1.54672 131.551 -0.200163 123.007 0.0181966 113.114H33.2089Z" fill="white"/>
<path d="M277.862 59.8246C277.207 55.7774 275.897 52.1798 273.932 48.8071C271.748 45.4344 269.346 42.5114 266.289 39.8132C263.232 37.3399 259.738 35.3162 255.808 33.9671C251.877 32.6181 247.947 31.9435 243.798 31.7187C235.937 31.7187 229.386 33.2926 224.146 36.4405C218.687 39.5883 214.32 43.6356 211.044 48.8071C207.55 53.9786 205.148 59.8246 203.62 66.3452C202.091 73.0906 201.436 79.8361 201.436 86.8064C201.436 93.5518 202.091 100.297 203.62 106.593C205.148 112.889 207.55 118.735 211.044 123.681C214.32 128.853 218.687 132.9 224.146 136.048C229.386 139.196 235.937 140.545 243.798 140.545C254.279 140.545 262.359 137.397 268.254 130.652C274.15 124.131 277.862 115.362 279.172 104.569H312.363C311.49 114.687 309.088 123.681 305.594 131.776C301.882 139.87 297.078 146.841 291.182 152.462C285.068 158.308 278.081 162.58 270.22 165.503C262.14 168.651 253.406 170 243.798 170C231.788 170 221.089 167.976 211.481 163.704C201.873 159.432 194.012 153.586 187.461 145.941C180.91 138.521 175.888 129.752 172.394 119.634C168.901 109.516 167.154 98.4984 167.154 86.8064C167.154 74.8894 168.901 63.8719 172.394 53.5289C175.888 43.1859 180.91 34.192 187.461 26.5472C194.012 19.1272 201.873 13.0563 211.481 8.55936C221.089 4.28725 231.788 2.26362 243.798 2.03878C252.314 2.03878 260.393 3.38786 268.036 5.86118C275.679 8.55936 282.448 12.1569 288.562 17.1036C294.676 22.0502 299.698 27.8962 303.629 35.0914C307.559 42.2865 309.961 50.6059 311.053 59.8246H277.862Z" fill="white"/>
<path d="M535.128 2H569.41V136.723H645.399V166.402H535.128V2Z" fill="white"/>
<path d="M681.379 2H715.662V166.402H681.379V2Z" fill="white"/>
<path d="M785.956 113.114C785.956 118.51 786.83 123.232 788.795 126.829C790.542 130.652 793.162 133.8 796.219 136.048C799.276 138.296 802.988 140.095 807.356 141.219C811.504 142.344 815.872 142.793 820.457 142.793C823.514 142.793 826.79 142.569 830.283 142.119C833.777 141.669 837.053 140.545 840.11 138.971C843.167 137.622 845.569 135.598 847.752 132.9C849.717 130.202 850.809 126.829 850.809 122.782C850.809 118.51 849.281 114.912 846.66 112.214C844.04 109.516 840.546 107.267 836.179 105.469C831.812 103.67 826.79 102.096 821.331 100.747C815.653 99.3978 810.194 98.0487 804.517 96.25C798.621 94.9009 792.944 93.1021 787.485 90.8536C781.808 88.6051 777.004 85.907 772.636 82.3094C768.269 78.9367 764.557 74.6646 761.937 69.4931C759.317 64.3216 758.006 58.0259 758.006 50.6059C758.006 42.5114 759.535 35.3162 763.029 29.2453C766.522 23.1745 770.89 18.003 776.567 13.9557C782.026 9.90844 788.358 6.98541 795.346 4.96178C802.333 3.16301 809.321 2.03878 816.308 2.03878C824.388 2.03878 832.249 3.16301 839.673 4.96178C847.097 6.76057 853.866 9.90844 859.762 13.9557C865.439 18.2278 870.025 23.6241 873.519 30.1447C877.012 36.6653 878.759 44.535 878.759 53.7537H845.569C845.132 49.0319 844.259 45.2095 842.512 41.8368C840.765 38.6889 838.581 36.2156 835.961 34.4168C833.122 32.8429 829.847 31.4938 826.353 30.5944C822.859 29.9199 818.929 29.695 814.78 29.4702C811.941 29.4702 809.103 29.9199 806.482 30.3696C803.644 31.0441 801.023 32.1684 798.84 33.5174C796.656 35.0914 794.691 36.8902 793.381 39.1386C791.852 41.3871 791.197 44.3101 791.197 47.6829C791.197 50.8307 791.634 53.5289 792.944 55.3277C794.036 57.3513 796.219 59.1501 799.713 60.724C803.207 62.5228 807.792 64.0967 813.906 65.6707C820.021 67.4695 827.882 69.4931 837.708 71.9664C840.546 72.6409 844.477 73.7652 849.717 75.3391C854.958 76.9131 859.98 79.3864 865.221 82.7591C870.243 86.3567 874.611 90.8536 878.323 96.6997C882.035 102.546 884 109.741 884 118.735C884 126.155 882.471 132.9 879.851 139.196C877.012 145.492 872.864 151.113 867.405 155.61C861.946 160.107 855.176 163.704 847.097 166.178C839.018 168.876 829.628 170 819.147 170C810.413 170 802.115 169.101 794.036 166.852C785.956 164.604 778.751 161.231 772.636 156.509C766.522 152.012 761.5 145.941 758.006 138.746C754.294 131.551 752.547 123.007 752.766 113.114H785.956Z" fill="white"/>
<path d="M451.5 12L445.5 29L494.742 165.139C495.735 167.885 498.67 169.408 501.488 168.64C504.643 167.779 506.395 164.41 505.286 161.332L451.5 12Z" fill="white"/>
<path fill-rule="evenodd" clip-rule="evenodd" d="M390.299 5.81774C391.361 2.85661 394.584 1.27525 397.576 2.247C400.699 3.26144 402.366 6.65744 401.257 9.74865L398.99 16.0673H396.771C393.087 16.0673 390.1 19.0537 390.1 22.7377C390.1 25.5735 391.87 27.996 394.365 28.9612L387.824 47.1963H385.651C381.967 47.1963 378.981 50.1827 378.981 53.8667C378.981 56.6867 380.731 59.0979 383.204 60.0738L376.657 78.3253H374.535C370.851 78.3253 367.864 81.3117 367.864 84.9957C367.864 87.799 369.593 90.1984 372.044 91.1854L365.49 109.454H363.42C359.736 109.454 356.75 112.441 356.75 116.125C356.75 118.911 358.458 121.298 360.883 122.296L354.323 140.583H352.301C348.617 140.583 345.631 143.57 345.631 147.254C345.631 150.024 347.319 152.399 349.723 153.408L345.499 165.183C344.437 168.144 341.214 169.725 338.222 168.753C335.098 167.739 333.432 164.343 334.541 161.252L390.299 5.81774Z" fill="white"/>
<path d="M438.347 5.7733C439.442 2.74855 442.776 1.17737 445.806 2.25747V2.25747C448.85 3.34245 450.437 6.69128 449.348 9.73394L393.904 164.68C392.826 167.69 389.627 169.378 386.534 168.567V168.567C383.026 167.647 381.066 163.913 382.301 160.503L438.347 5.7733Z" fill="white"/>
<path d="M392.729 22.7718C392.729 20.3219 394.715 18.3359 397.164 18.3359H430.187V18.3359C430.187 23.2356 426.215 27.2076 421.315 27.2076H397.164C394.715 27.2076 392.729 25.2216 392.729 22.7718V22.7718Z" fill="white"/>
<path d="M381.885 53.9905C381.885 51.5407 383.871 49.5547 386.321 49.5547H419.343V49.5547C419.343 54.4544 415.371 58.4263 410.471 58.4263H386.321C383.871 58.4263 381.885 56.4404 381.885 53.9905V53.9905Z" fill="white"/>
<path d="M370.055 84.8733C370.055 82.4235 372.041 80.4375 374.491 80.4375H407.513V80.4375C407.513 85.3372 403.541 89.3092 398.641 89.3092H374.491C372.041 89.3092 370.055 87.3232 370.055 84.8733V84.8733Z" fill="white"/>
<path d="M359.211 116.42C359.211 113.97 361.197 111.984 363.647 111.984H396.669V111.984C396.669 116.884 392.697 120.856 387.797 120.856H363.647C361.197 120.856 359.211 118.87 359.211 116.42V116.42Z" fill="white"/>
<path d="M348.465 147.366C348.465 144.916 350.451 142.93 352.901 142.93H385.923V142.93C385.923 147.829 381.951 151.801 377.051 151.801H352.901C350.451 151.801 348.465 149.815 348.465 147.366V147.366Z" fill="white"/>
<path d="M398.148 30.1647L409.977 29.6719L416.385 46.9223H404.063L398.148 30.1647Z" fill="white"/>
<path d="M414.413 61.7109H409.484L412.442 67.6254L414.413 61.7109Z" fill="white"/>
<path d="M423.5 90L426.5 81.4257H461.5L464.5 90H423.5Z" fill="white"/>
<path d="M432.649 92.7617H420.82L445.552 165.116C446.384 167.55 448.671 169.185 451.243 169.185C455.396 169.185 458.299 165.075 456.911 161.16L432.649 92.7617Z" fill="white"/>
</svg>
