<?xml version="1.0" encoding="UTF-8" standalone="no"?><!DOCTYPE svg PUBLIC "-//W3C//DTD SVG 1.1//EN" "http://www.w3.org/Graphics/SVG/1.1/DTD/svg11.dtd"><svg width="100%" height="100%" viewBox="0 0 667 430" version="1.1" xmlns="http://www.w3.org/2000/svg" xmlns:xlink="http://www.w3.org/1999/xlink" xml:space="preserve" xmlns:serif="http://www.serif.com/" style="fill-rule:evenodd;clip-rule:evenodd;stroke-linejoin:round;stroke-miterlimit:2;"><path d="M599.733,0l-599.733,52.471l32.358,369.9l599.775,-52.475l-32.366,-369.896l-0.034,0Zm-575.283,72.992l554.8,-48.542l28.429,324.925l-554.804,48.546l-28.425,-324.929Z" style="fill:#fff;"/><path d="M543.558,227.975l-448.408,39.233l-0.525,-5.995l448.404,-39.234l0.529,5.996Zm-330.379,-10.237l-25.763,2.25l-27.733,-71.15l-0.458,0.041l-14.955,74.888l-25.912,2.266l-40.083,-105.25l28.05,-2.454l23.358,70.304l0.458,-0.033l12.917,-73.483l27.142,-2.375l25.641,70.108l0.459,-0.042l11.095,-73.32l27.138,-2.375l-21.354,110.625Zm57.166,-5l-9.441,-107.934l26.221,-2.291l9.441,107.929l-26.221,2.296Zm128.159,-11.213l-49.625,-66.783l-0.454,0.041l6.787,70.529l-25.308,2.217l-9.442,-107.933l29.725,-2.6l49.458,66.641l0.459,-0.041l-6.775,-70.375l25.309,-2.213l9.441,107.929l-29.575,2.588Zm67.079,-5.867l-9.445,-107.933l72.562,-6.35l1.921,21.954l-47.408,4.146l1.791,20.429l44.813,-3.921l1.829,20.884l-44.817,3.921l1.959,22.412l50.15,-4.388l1.95,22.25l-75.305,6.596Zm-360.392,114.8c-0.541,-6.171 -0.904,-6.958 -4.954,-7.487c-1.271,-0.183 -2.083,-1 -2.137,-1.663c-0.1,-1.1 1.629,-1.62 2.366,-1.687c1.396,-0.121 6.05,-0.233 9.279,-0.513c4.409,-0.391 7.988,-0.925 10.117,-1.112c1.1,-0.092 2.333,0.392 2.417,1.346c0.071,0.879 -1.125,1.579 -1.696,1.775c-3.529,1.125 -3.667,2.096 -3.625,5.946c0.054,3.17 0.542,9.57 0.979,14.562c0.7,8.008 1.096,10.858 1.179,11.813c0.45,3.437 0.942,4.875 4.696,5.437c1.425,0.25 2.446,0.896 2.533,1.925c0.08,0.879 -1.5,1.458 -2.379,1.542c-0.737,0.062 -7.883,0.466 -10.375,0.683c-2.571,0.225 -7.908,0.992 -9.229,1.104c-0.958,0.084 -2.521,0 -2.621,-1.175c-0.071,-0.808 1.021,-1.866 2.021,-2.25c2.854,-1.208 3.221,-2.129 3.396,-4.366c0.083,-1.567 0.042,-2.892 -0.483,-8.917l-1.484,-16.959l0,-0.004Zm38.734,-14.862c2.937,-0.254 8.858,-0.254 13.562,-0.667c0.658,-0.058 1.733,0.367 1.975,0.638c1.4,1.583 3.896,3.879 7.75,7.391c4.263,3.842 17.025,15.238 18.721,15.98c0.225,0.05 0.8,-0.146 0.858,-0.375c0.263,-2.021 -0.354,-9.075 -1.016,-14.117c-0.659,-4.979 -0.459,-6.921 -6.305,-7.738c-1.8,-0.287 -2.566,-1.483 -2.608,-1.92c-0.046,-0.513 0.667,-1.684 2.429,-1.838c2.646,-0.237 2.504,-0.146 4.417,-0.317c3.008,-0.266 8.558,-1.12 10.025,-1.245c1.542,-0.134 2.612,0.216 2.721,1.462c0.071,0.808 -0.471,1.375 -2.729,2.608c-2.9,1.584 -3.271,2.434 -3.259,3.392c0.146,3.392 0.884,18.575 1.317,23.5c0.279,3.225 0.858,6.433 1.154,9.808c0.267,3.088 -0.125,5.417 -1.442,5.534c-2.35,0.2 -4.375,-0.954 -5.912,-2.446c-2.988,-2.846 -6.792,-6.583 -9.05,-8.679c-3.071,-2.988 -15.604,-14.25 -19.146,-17.496c-0.237,-0.2 -0.708,0.283 -0.687,0.583c0.07,1.625 -0.059,1.854 0.216,5.009c0.292,3.304 1.025,9.979 1.267,11.958c0.721,5.704 1.833,7.383 4.492,8.187c2.583,0.738 3.458,1.475 3.55,2.5c0.075,0.884 -0.684,1.467 -2.375,1.617c-2.059,0.179 -4.584,0.108 -8.034,0.408c-3.45,0.3 -5.258,0.75 -6.208,0.834c-2.208,0.2 -3.017,-0.542 -3.083,-1.279c-0.084,-0.959 0.745,-1.696 2.029,-2.25c3.283,-1.401 4.583,-1.738 4.521,-6.688c-0.063,-4.958 -1.021,-22.629 -1.225,-24.979c-0.042,-0.442 -0.542,-1.95 -1.592,-2.975c-1.696,-1.625 -3.096,-2.392 -4.821,-2.609c-1.717,-0.22 -3.192,-0.979 -3.312,-2.375c-0.042,-0.512 0.479,-1.3 1.8,-1.416Zm101.6,-7.779c0.45,0.037 1.066,1.166 1.137,1.975c0.075,0.879 0.942,4.875 1.042,5.979c0.216,2.491 -0.871,3.625 -1.896,3.712c-0.808,0.075 -1.579,-1.116 -1.854,-1.679c-2,-4.271 -6.167,-7.9 -10.35,-7.533c-3.084,0.266 -5.625,3.375 -5.384,6.166c0.292,3.309 2.93,5.517 7.3,7.284c9.667,3.887 15.459,7.525 16.071,14.5c0.525,6.025 -3.291,9.762 -5.791,11.608c-2.721,1.942 -7.459,3.613 -10.834,3.908c-6.25,0.546 -9.958,-0.458 -11.708,-0.97c-0.533,-0.18 -1.763,-0.734 -2.204,-1.509c-1.479,-2.533 -2.034,-6.333 -2.188,-8.096c-0.125,-1.399 0.459,-3.225 1.634,-3.329c0.808,-0.071 1.837,0.725 3.033,2.542c3.154,4.763 7.512,8.008 12.067,7.608c2.645,-0.233 5.787,-2.354 5.491,-5.737c-0.196,-2.204 -0.258,-4.638 -8.1,-8.021c-10.075,-4.3 -14.166,-7.937 -14.766,-14.771c-0.417,-4.771 2.62,-8.958 5.975,-11.25c2.654,-1.791 6.095,-3.054 10.283,-3.416c4.108,-0.363 8.121,0.625 11.042,1.029Zm31.895,7.571c-0.541,-6.167 -0.904,-6.95 -4.95,-7.488c-1.275,-0.183 -2.083,-1 -2.141,-1.658c-0.096,-1.104 1.633,-1.625 2.366,-1.688c1.4,-0.125 6.046,-0.233 9.284,-0.516c4.408,-0.388 7.987,-0.921 10.116,-1.105c1.1,-0.1 2.325,0.384 2.409,1.338c0.079,0.883 -1.121,1.583 -1.692,1.779c-3.529,1.125 -3.667,2.096 -3.625,5.946c0.058,3.167 0.542,9.571 0.975,14.567c0.7,8 1.1,10.854 1.183,11.812c0.45,3.433 0.942,4.871 4.696,5.433c1.425,0.246 2.446,0.896 2.538,1.925c0.075,0.884 -1.5,1.459 -2.384,1.542c-0.733,0.063 -7.879,0.467 -10.375,0.683c-2.57,0.225 -7.908,0.988 -9.229,1.105c-0.958,0.083 -2.516,-0 -2.621,-1.175c-0.07,-0.813 1.021,-1.871 2.025,-2.25c2.855,-1.213 3.221,-2.134 3.392,-4.367c0.083,-1.563 0.042,-2.896 -0.483,-8.917l-1.484,-16.966Zm58.08,-12.038c-0.288,0.175 -0.896,1.633 -0.871,1.925c0.075,2.508 0.054,5.696 0.541,11.208l0.459,5.284c0.821,9.404 1.221,10.55 1.633,12.737c0.279,1.529 1.225,3 2.167,3.654c0.871,0.592 3.621,1.609 4.579,1.529c0.804,-0.075 4.696,-1.3 7.654,-4.666c3.029,-3.45 3.883,-9.742 3.458,-14.663c-0.47,-5.362 -2.35,-10.75 -6.416,-14.087c-3.517,-2.958 -7.384,-4.021 -9.729,-3.813c-0.588,0.05 -2.988,0.555 -3.475,0.892Zm23.42,-0.417c6.625,4.675 8.45,11.1 8.846,15.654c0.984,11.238 -6,17.696 -9.775,20.246c-4.966,3.246 -10.429,4.317 -15.862,4.792c-3.013,0.263 -11.067,0.375 -13.417,0.583c-2.354,0.209 -5.658,0.492 -9.154,1.096c-0.583,0.125 -1.217,-0.337 -1.258,-0.854c-0.075,-0.804 0.875,-2.667 2.666,-3.333c2.292,-0.875 3.559,-0.763 3.859,-4.121c0.262,-2.909 -0.059,-6.579 -0.905,-16.275c-0.883,-10.067 -0.845,-11.325 -1.583,-13.85c-0.217,-0.792 -0.462,-1.883 -3.979,-2.317c-1.792,-0.212 -2.892,-0.929 -2.983,-1.958c-0.096,-1.104 1.041,-1.646 3.17,-1.834l5.075,-0.366c2.575,-0.15 9.867,-1.384 15.009,-1.833c7.054,-0.617 14.458,0.291 20.291,4.37Zm51.663,-10.145c6.684,-0.584 7.709,-0.675 9.367,-1.192c0.287,-0.091 0.596,-0.09 0.883,0.004c0.288,0.095 0.538,0.277 0.717,0.521c0.504,0.696 1.583,6.225 1.721,7.846c0.166,1.904 -0.675,2.425 -1.117,2.462c-1.321,0.117 -2.125,-0.625 -3.179,-2.533c-1.658,-2.892 -2.734,-3.313 -3.321,-3.263c-4.188,0.367 -8.209,0.942 -9.238,1.034c-0.366,0.029 -0.883,0.887 -0.858,1.183c0.054,1.4 0.367,6.704 0.808,11.771c0.1,1.175 0.388,1.892 0.763,1.929c0.829,0.15 3.391,-0.15 4.708,-0.333c3.283,-0.513 4.208,-1.779 4.859,-3.684c0.341,-1.137 1,-2.083 1.808,-2.158c1.029,-0.092 1.775,0.883 1.821,3.025c0,0.883 0.075,2.583 0.221,4.271c0.15,1.692 0.446,3.367 0.612,4.462c0.321,1.967 -0.7,2.95 -1.437,3.009c-0.663,0.062 -1.684,-0.663 -2.475,-2.075c-0.884,-1.621 -1.151,-2.117 -2.701,-2.129c-3.033,0.041 -3.487,-0.067 -6.791,0.225c-0.367,0.029 -0.721,1.095 -0.559,2.933c0.175,1.979 0.767,6.225 0.98,7.833c0.333,2.117 0.7,2.9 0.945,3.175c0.834,1.038 4.438,1.684 7.968,1.375c1.17,-0.108 3.208,-0.5 4.82,-1.608c1.329,-0.854 1.984,-1.804 3.409,-4.146c1.033,-1.721 1.687,-3.55 2.862,-3.658c1.396,-0.117 2.021,1.971 1.863,3.541c-0.255,2.167 -1.588,7.246 -1.817,7.93c-0.179,0.529 -1.65,1.479 -2.092,1.516c-0.958,0.084 -3.925,-0.029 -17.292,1.138c-4.629,0.408 -13.858,1.508 -17.016,1.787c-1.542,0.134 -2.692,-0.354 -2.746,-0.941c-0.079,-0.88 0.416,-1.959 1.925,-2.538c4.946,-1.837 4.946,-3.542 4.979,-4.875c-0.021,-3.55 -0.075,-5.104 -1.067,-16.417c-0.991,-11.304 -1.175,-11.737 -1.516,-13.037c-0.559,-2.167 -1.584,-2.896 -4.584,-3.375c-1.95,-0.271 -2.333,-1.271 -2.375,-1.792c-0.083,-0.946 1.338,-1.591 2.292,-1.675c1.25,-0.112 9.437,-0.458 14.279,-0.879l7.567,-0.667l0.004,0.005Zm56.646,-1.33c-0.291,0.021 -1.371,0.413 -1.783,0.742c-0.208,0.171 -0.4,0.558 -0.342,1.217c0.179,2.058 0.929,8.875 1.358,13.796c0.021,0.291 0.396,1.145 0.701,1.274c1.066,0.346 2.041,0.484 3.291,0.375c1.617,-0.141 4.113,-2.062 4.525,-2.395c0.417,-0.334 1.809,-3.042 1.5,-6.567c-0.404,-4.625 -3.966,-8.908 -9.25,-8.446m17.809,14.058c-1.021,1.051 -2.03,1.363 -3.492,2.38c-0.35,0.25 0.137,1.616 0.396,2.037c1.9,3.084 5.683,8.238 8.783,11.517c2.854,3.004 5.238,4.058 7.592,4.742c0.758,0.225 1.771,0.804 1.833,1.462c0.163,1.917 -2.137,2.708 -4.117,2.879c-5.879,0.513 -11.583,0.421 -17.308,-5.816c-2.95,-3.217 -5.25,-6.717 -7.6,-9.842c-1.342,-1.809 -2.4,-2.084 -3.575,-1.979c-0.512,0.041 -0.508,0.933 -0.492,1.154c0.517,5.875 0.667,7.637 1.113,10.187c0.45,2.625 1.196,2.634 4.25,3.775c1.383,0.542 2.333,1.271 2.383,1.859c0.075,0.812 -1.375,1.97 -2.625,2.079c-1.837,0.162 -7.516,0.362 -10.091,0.587c-2.275,0.2 -5.7,0.796 -8.417,1.042c-1.767,0.146 -2.875,-0.642 -2.938,-1.375c-0.087,-1.029 0.875,-1.854 2.238,-2.346c2.937,-1.146 3.621,-1.796 3.446,-5.479c-0.159,-2.654 -0.275,-3.975 -1.429,-17.196c-0.792,-9.033 -1.051,-9.454 -1.334,-10.983c-0.275,-1.458 -1.062,-2.867 -3.9,-3.138c-1.417,-0.171 -2.396,-1.2 -2.442,-1.708c-0.108,-1.25 1.3,-2.042 3.063,-2.192c3.75,-0.333 5.008,-0.291 5.962,-0.375c4.846,-0.425 8.846,-1.22 13.988,-1.666c6.462,-0.571 9.967,0.529 11.842,1.7c3.375,2.146 5.171,4.954 5.512,8.846c0.246,2.791 -0.875,6.066 -2.641,7.85Zm59.191,-23.83c0.45,0.034 1.063,1.167 1.138,1.971c0.075,0.884 0.941,4.884 1.041,5.983c0.217,2.496 -0.871,3.625 -1.896,3.717c-0.808,0.067 -1.583,-1.125 -1.85,-1.687c-2,-4.271 -6.166,-7.896 -10.354,-7.529c-3.083,0.266 -5.625,3.375 -5.379,6.166c0.292,3.304 2.921,5.513 7.296,7.284c9.667,3.887 15.458,7.525 16.071,14.5c0.529,6.025 -3.292,9.762 -5.792,11.612c-2.721,1.938 -7.458,3.608 -10.833,3.904c-6.246,0.546 -9.959,-0.458 -11.709,-0.971c-0.533,-0.179 -1.766,-0.737 -2.204,-1.512c-1.479,-2.534 -2.033,-6.333 -2.187,-8.096c-0.125,-1.396 0.458,-3.221 1.633,-3.325c0.808,-0.071 1.842,0.725 3.038,2.542c3.154,4.762 7.504,8.004 12.062,7.608c2.642,-0.233 5.788,-2.354 5.492,-5.737c-0.192,-2.2 -0.263,-4.638 -8.104,-8.025c-10.071,-4.292 -14.167,-7.934 -14.763,-14.763c-0.417,-4.779 2.625,-8.967 5.975,-11.254c2.654,-1.788 6.092,-3.054 10.283,-3.417c4.113,-0.358 8.121,0.621 11.042,1.029Z" style="fill:#fff;"/><g><path d="M651.617,356.795l2.233,-0.2c1.067,-0.087 1.783,-0.316 2.142,-0.666c0.175,-0.168 0.308,-0.373 0.391,-0.601c0.08,-0.228 0.109,-0.471 0.08,-0.712c-0.025,-0.329 -0.155,-0.642 -0.367,-0.896c-0.213,-0.253 -0.5,-0.433 -0.821,-0.516c-0.346,-0.1 -0.967,-0.109 -1.862,-0.034l-2.096,0.184l0.3,3.441Zm-1.275,6.571l-1,-11.396l3.916,-0.341c1.338,-0.117 2.321,-0.1 2.934,0.058c0.616,0.158 1.129,0.488 1.529,0.979c0.4,0.492 0.633,1.038 0.683,1.625c0.071,0.834 -0.166,1.584 -0.704,2.254c-0.575,0.688 -1.388,1.133 -2.275,1.246c0.417,0.134 0.758,0.304 1.021,0.517c0.5,0.408 1.125,1.112 1.883,2.117l1.583,2.108l-2.245,0.192l-1.167,-1.705c-0.917,-1.341 -1.642,-2.17 -2.154,-2.487c-0.363,-0.229 -0.863,-0.317 -1.513,-0.263l-1.075,0.096l0.421,4.842l-1.837,0.158Zm3.358,-15.1c-1.521,0.143 -2.983,0.667 -4.246,1.525c-1.329,0.871 -2.375,2.107 -3.016,3.559c-0.671,1.483 -0.942,3 -0.809,4.533c0.134,1.529 0.654,2.958 1.558,4.283c0.9,1.334 2.092,2.325 3.563,2.984c1.471,0.662 2.971,0.925 4.496,0.791c1.529,-0.133 2.958,-0.658 4.292,-1.562c1.337,-0.904 2.333,-2.088 2.987,-3.554c0.654,-1.463 0.917,-2.959 0.783,-4.488c-0.141,-1.555 -0.683,-3.047 -1.575,-4.329c-0.883,-1.321 -2.129,-2.356 -3.591,-2.979c-1.392,-0.624 -2.921,-0.886 -4.442,-0.763Zm-0.15,-1.758c1.775,-0.154 3.55,0.15 5.325,0.917c1.775,0.762 3.208,1.95 4.304,3.57c1.096,1.617 1.721,3.342 1.879,5.188c0.163,1.825 -0.15,3.621 -0.933,5.387c-0.758,1.736 -2,3.217 -3.575,4.267c-1.525,1.053 -3.3,1.692 -5.15,1.854c-1.846,0.161 -3.704,-0.16 -5.392,-0.933c-1.737,-0.761 -3.216,-2.005 -4.266,-3.583c-1.059,-1.522 -1.7,-3.293 -1.867,-5.138c-0.158,-1.865 0.171,-3.739 0.958,-5.437c0.767,-1.745 2.03,-3.228 3.625,-4.267c1.517,-1.028 3.267,-1.656 5.092,-1.825Z" style="fill:#fff;"/></g></svg>